<?xml version="1.0" encoding="UTF-8" standalone="no"?>
<!DOCTYPE svg PUBLIC "-//W3C//DTD SVG 1.1//EN" "http://www.w3.org/Graphics/SVG/1.1/DTD/svg11.dtd">
<svg width="100%" height="100%" viewBox="0 0 473 158" version="1.1" xmlns="http://www.w3.org/2000/svg" xmlns:xlink="http://www.w3.org/1999/xlink" xml:space="preserve" xmlns:serif="http://www.serif.com/" style="fill-rule:evenodd;clip-rule:evenodd;stroke-linejoin:round;stroke-miterlimit:2;">
    <g transform="matrix(1,0,0,1,-277.379,-196.205)">
        <g transform="matrix(1,0,0,1,-218.39,15.9776)">
            <g transform="matrix(1,0,0,1,11.3578,-247.265)">
                <g transform="matrix(0.542815,0,0,0.542815,279.434,229.214)">
                    <path d="M538.14,653.11C522.87,655.86 502.01,655.62 487.5,652.52C459.13,646.46 435.41,633.51 416.24,613.6C396.57,593.18 384.3,569.32 379.42,542C376.86,527.66 377.05,505.47 379.87,491.16C388.63,446.56 416.93,411.23 459,392.36C473.47,385.86 496.01,379.93 496,382.61C495.99,383.1 495.14,384.9 494.09,386.62C492.69,388.92 491.17,389.93 488.34,390.44C467.79,394.17 441.96,407.73 424.99,423.69C406.81,440.79 393.93,463.39 387.91,488.71C384.87,501.52 384.23,523.24 386.46,537.44C394.09,585.89 426.97,625.25 472.62,640.57C497.41,648.89 520.47,649.97 544.73,643.93C597.74,630.74 636.22,585.63 642.1,529.79C645.1,501.25 635.8,467.37 618.09,442.29C600.16,416.9 573.64,399.4 540.41,391.04C537.28,390.25 535.88,389.19 534.45,386.54C533.43,384.64 532.88,382.79 533.23,382.44C533.58,382.08 539.2,383.13 545.7,384.76C638.66,408.1 679.64,515.43 626.3,595.87C623.08,600.72 615.97,609.11 610.04,615.04C589.41,635.67 565.94,648.1 538.14,653.11ZM536.3,554.1C536.101,557.388 515.608,585.899 513.206,585.893C510.937,585.888 490.84,557.552 491,555.26C491.201,552.382 512.06,521.571 513.36,521.571C514.996,521.571 536.519,550.494 536.3,554.1ZM464.37,618.26C463.94,625.73 463.84,629.976 462.6,629.98C460.77,629.986 449.66,623.64 442.37,618.51C434.89,613.24 418.52,597.24 417.62,594.32C417.32,593.32 417.62,590.03 418.3,587C419.28,582.66 419.98,581.44 421.65,581.2C424.4,580.8 460.79,600.83 463.21,604.08C464.84,606.26 464.96,607.81 464.37,618.26ZM528,640.99C520.45,642.15 514.62,642.28 513.67,641.33C513.3,640.97 513,631.58 513,620.47C513,601.55 513.13,600.1 515.07,597.63C516.21,596.19 517.87,595 518.76,595C519.65,595 524.45,598.94 529.44,603.75C534.42,608.56 540.67,614.41 543.32,616.75C545.55,618.73 546.87,619.83 547.3,621.21C547.89,623.12 546.79,625.55 544.08,631.53C543.98,631.76 543.87,631.99 543.77,632.23C540.42,639.63 541.73,638.9 528,640.99ZM503,592.48C503.603,594.1 502.715,621.385 502.1,622C501.397,622.703 494.94,617.16 487.29,611.25C479.64,605.34 466.5,596.149 466.5,595.17C466.5,593.82 481.32,570.5 482.67,570.5C483.32,570.5 488.16,575.45 493.42,581.49C493.42,581.49 502.397,590.86 503,592.48ZM565.44,630.14C560.91,632.26 555.421,634.498 554.771,633.708C553.811,632.558 555.57,627.78 562.49,614.07C569.86,599.48 571.5,596.92 573.81,596.37C575.29,596.02 600.69,589.3 601.1,589.72C601.52,590.15 600.98,594.33 599.9,599C598.09,606.81 597.55,607.86 593.22,611.89C586.57,618.07 575.08,625.62 565.44,630.14ZM557.92,602.21C555.68,607.32 553.48,611.88 553.02,612.35C551.91,613.5 524.85,587.85 525.47,586.23C526.4,583.79 539.49,568 540.59,568C542.57,568 562,588.77 562,590.89C562,592 560.17,597.09 557.92,602.21ZM590.99,566.22C590.99,567.12 574.89,587 573.99,587C573.09,587 554.551,568.802 555.72,565.93C557.702,561.062 572,544 573.4,544C574.66,544 590.99,564.6 590.99,566.22ZM619.56,579.83C617.69,583.5 615.53,587.35 614.75,588.39C613.37,590.22 613.27,590.21 611.24,588.03C610.09,586.8 608.62,584.49 607.96,582.89C606.42,579.2 603.42,579.11 594.42,582.49C587.85,584.97 586,585.01 586,582.68C586,582.01 591.38,576.1 597.96,569.54C597.96,569.54 607.562,559.273 609.92,557.61C610.719,557.047 622.95,572.128 622.95,573.15C622.95,574.172 619.56,579.83 619.56,579.83ZM468,574.42C468,575.03 456.64,591.99 456.23,591.97C454.9,591.91 440.51,579.09 440.21,577.7C440.05,576.95 451.77,560 452.63,560C454.41,560 468,572.75 468,574.42ZM502.1,637.75C501.53,639.9 500.73,640.54 498.43,640.67C495.05,640.86 483.14,638.09 476.53,635.57C476.53,635.57 472.263,634.507 472,633.83C471.737,633.153 472,623.89 472,623.89C472,615.6 472.27,613.83 473.64,613.31C474.54,612.96 475.84,613.09 476.54,613.59C482.38,617.77 499.84,631.62 501.16,633.12C502.34,634.46 502.61,635.81 502.1,637.75ZM443,561.58C443,561.9 430.38,577 429.95,577C428.7,577 417.04,563.63 417.02,562.18C416.99,560.13 428.2,547 429.99,547C431.37,547 443,560.02 443,561.58ZM411.55,577.5C411.18,579.98 410.49,582 410.01,582C408.91,582 401.82,569.02 399.48,562.72C397.71,557.95 397.71,557.94 400.03,555.47C405.51,549.64 411.2,554.82 411.84,566.23C412.05,569.96 411.92,575.03 411.55,577.5ZM629.12,558.84C627.92,562.78 626.55,566 626.06,566C624.33,566 620,559.8 620,557.32C620,554.5 626.22,547.57 628.17,548.22C631.06,549.19 631.28,551.71 629.12,558.84Z" style="fill:rgb(30,33,71);"/>
                    <path d="M639.87,493.04C641.07,498.76 641.9,504.49 642.32,510.15C641.69,507.03 640.55,505.33 637.16,502C629.28,494.26 608.35,474.31 589.99,457.06C580.37,448.02 566.4,434.74 558.94,427.56C551.48,420.38 537.213,405.819 537.65,407.5C538.321,410.083 583.55,467.21 597.73,485.2C631.8,528.43 636,533.95 636,535.54C636,540.2 633.183,536.235 612.1,509.62C609.046,505.765 534.286,410.06 534.144,409.907C524.722,399.775 515.447,382.048 515.267,382.128C514.737,382.348 515.74,411.72 515.94,462C516.05,487.03 515.83,508.29 515.46,509.25C515.09,510.21 514.16,511 513.39,511C512.22,511 512,503.14 512,461.5C512,429.17 511.4,411.806 511.238,410.319C511.178,409.773 504.692,397.915 504.022,397.731C503.408,397.562 490.15,415.078 485.68,420.66C477.346,431.067 414.11,510.29 406.52,520C394.26,535.68 392.83,537.23 391.71,536.11C390.08,534.48 391.42,532.41 406.5,513.38C414.2,503.66 488.17,410.85 489,409.71C492.02,405.5 487.36,409.36 472.85,423.06C464.96,430.52 416.44,476.21 405.28,486.85L385.55,505.68C386,499.36 386.79,493.43 387.91,488.71C390.37,478.39 393.96,468.51 398.59,459.27C391.94,472.97 386.12,491.45 387.15,496.4C387.55,498.34 388,497.94 418.18,468.92C428.8,458.69 464.61,425.31 476.64,414.09L498.5,393.67L505.74,380.59C509.379,373.504 513.43,365.277 513.96,365.277C514.49,365.277 520.33,375.99 526.18,387.24C528.4,391.5 531.85,396.39 533.86,398.11C535.86,399.84 541.78,405.35 547.01,410.37C552.24,415.39 560.57,423.31 565.51,427.96C570.46,432.61 579.23,440.93 585.01,446.46C590.79,451.98 599.79,460.54 605.01,465.47C610.23,470.4 620.2,479.98 627.17,486.75C634.14,493.52 640.07,498.7 640.35,498.25C640.61,497.83 640.39,495.84 639.87,493.04ZM620.02,591.09C607.87,609.13 591.41,623.86 571.91,633.79C591.06,623.95 607.69,609.3 620.02,591.09ZM484.33,643.99C480.46,643.04 476.56,641.9 472.62,640.57C466.06,638.37 459.77,635.68 453.78,632.53C463.05,637.26 473.92,641.31 484.33,643.99ZM451.56,404.52C463.83,397.64 476.9,392.52 488.34,390.44C477.68,392.38 464.21,397.6 451.56,404.52ZM630.76,464.78C626.97,456.74 622.1,447.95 618.09,442.29C622.98,449.21 627.23,456.81 630.76,464.78ZM642.58,522.83C642.5,525.18 642.34,527.5 642.1,529.79C641.56,534.92 640.74,539.96 639.66,544.9C641.06,538.02 642.13,529.72 642.58,522.83ZM424.5,424.15C418.25,430.21 412.4,437.09 407.43,444.25C412.42,436.95 418.13,430.21 424.5,424.15ZM391.74,559.13C389.41,552.15 387.64,544.9 386.46,537.44C386.07,534.94 385.76,532.22 385.55,529.35C386.48,539.59 388.57,549.58 391.74,559.13Z" style="fill:rgb(195,155,101);"/>
                </g>
                <g transform="matrix(1.41263,0,0,0.733166,-23.8837,171.047)">
                    <path d="M473.501,493.881L480.102,493.881C480.102,493.881 489.85,435.561 491.624,435.561C493.399,435.561 503.146,493.881 503.146,493.881L509.748,493.881C509.748,493.881 497.115,426.481 493.742,413.001C493.399,411.632 489.85,411.632 489.507,413.001C486.133,426.481 473.501,493.881 473.501,493.881Z" style="fill:rgb(30,33,71);fill-rule:nonzero;stroke:rgb(30,33,71);stroke-width:1.78px;"/>
                </g>
                <g transform="matrix(1.41263,0,0,0.733166,-23.6368,171.047)">
                    <path d="M539.332,493.881C541.446,493.881 541.437,482.001 539.332,482.001L528.308,482.001C521.644,481.521 516.537,471.081 516.537,458.241L516.537,413.121C516.537,411.015 510.371,411.015 510.371,413.121L510.371,458.241C510.433,477.561 518.218,493.161 528.246,493.881L539.332,493.881Z" style="fill:rgb(30,33,71);fill-rule:nonzero;stroke:rgb(30,33,71);stroke-width:1.78px;"/>
                </g>
                <g transform="matrix(1.41263,0,0,0.733166,-20.4301,169.321)">
                    <path d="M549.234,413.001C549.234,410.873 543.068,410.93 543.068,413.001L543.068,493.881C543.068,495.952 549.234,496.009 549.234,493.881C549.234,486.962 548.444,456.441 549.234,456.441C553.054,456.441 564.801,485.715 569.04,493.881C570.754,497.185 579.691,496.853 578.569,493.881C576.015,487.121 556.835,456.02 556.832,453.321C556.83,450.622 575.963,419.721 578.506,413.001C579.631,410.03 570.327,410.401 568.977,413.001C563.909,422.766 551.928,445.011 549.234,450.201C548.379,451.85 549.234,419.72 549.234,413.001Z" style="fill:rgb(30,33,71);fill-rule:nonzero;stroke:rgb(30,33,71);stroke-width:1.78px;"/>
                </g>
                <g transform="matrix(1.41263,0,0,0.733166,-23.112,169.905)">
                    <path d="M620.421,493.881C620.421,495.966 626.587,495.952 626.587,493.881L626.587,413.001C626.587,411.626 623.191,411.832 622.477,413.001C619.041,418.621 607.098,446.721 605.972,446.721C604.846,446.721 592.955,418.621 589.53,413.001C588.817,411.831 585.419,411.626 585.419,413.001L585.419,493.881C585.419,495.952 591.585,495.966 591.585,493.881L591.585,434.481C591.585,431.729 604.544,465.335 605.972,465.335C607.401,465.335 620.421,432.503 620.421,434.481L620.421,493.881Z" style="fill:rgb(30,33,71);fill-rule:nonzero;stroke:rgb(30,33,71);stroke-width:1.78px;"/>
                </g>
                <g transform="matrix(1.41263,0,0,0.733166,-21.8906,169.937)">
                    <path d="M647.7,461.481C649.953,472.044 646.673,488.481 647.7,493.881C648.085,495.9 653.483,495.9 653.866,493.881C654.894,488.461 651.738,471.99 653.866,461.361C656.586,447.781 668.679,420.561 670.184,412.401C670.624,410.012 664.039,410.257 662.897,412.401C659.658,418.481 651.988,448.881 650.752,448.881C649.516,448.881 641.202,418.481 637.798,412.401C636.581,410.228 629.831,409.959 630.324,412.401C631.974,420.581 644.804,447.901 647.7,461.481Z" style="fill:rgb(30,33,71);fill-rule:nonzero;stroke:rgb(30,33,71);stroke-width:1.78px;"/>
                </g>
                <g transform="matrix(1.41263,0,0,0.733166,-286.25,165.153)">
                    <path d="M673.921,489.921C673.921,493.281 675.291,495.921 676.972,495.921C678.716,495.921 680.086,493.281 680.086,489.921C680.086,486.681 678.716,484.041 676.972,484.041C675.291,484.041 673.921,486.681 673.921,489.921Z" style="fill:rgb(30,33,71);fill-rule:nonzero;stroke:rgb(30,33,71);stroke-width:0.89px;"/>
                </g>
                <g transform="matrix(1,0,0,1,865.362,410.867)">
                    <path d="M56.793,46.836C55.594,46.375 54.344,46.016 53.051,45.77C52.965,45.754 52.875,45.734 52.785,45.719C51.98,45.578 51.98,44.422 52.785,44.281C52.875,44.266 52.965,44.246 53.051,44.231C54.344,43.984 55.594,43.625 56.793,43.164C57.492,42.899 58.172,42.598 58.832,42.262C63.004,40.152 66.402,36.754 68.512,32.582C68.848,31.922 69.149,31.242 69.414,30.543C69.875,29.344 70.234,28.094 70.481,26.801C70.496,26.715 70.516,26.625 70.531,26.535C70.672,25.73 71.828,25.73 71.969,26.535C71.984,26.625 72.004,26.715 72.02,26.801C72.266,28.094 72.625,29.344 73.086,30.543C73.352,31.242 73.652,31.922 73.988,32.582C76.098,36.754 79.496,40.152 83.668,42.262C84.328,42.598 85.008,42.899 85.707,43.164C86.906,43.625 88.156,43.984 89.449,44.231C89.535,44.246 89.625,44.266 89.715,44.281C90.52,44.422 90.52,45.578 89.715,45.719C89.625,45.734 89.535,45.754 89.449,45.77C88.156,46.016 86.906,46.375 85.707,46.836C85.008,47.102 84.328,47.402 83.668,47.738C79.496,49.848 76.098,53.246 73.988,57.418C73.652,58.078 73.352,58.758 73.086,59.457C72.625,60.656 72.266,61.906 72.02,63.199C72.004,63.285 71.984,63.375 71.969,63.465C71.828,64.27 70.672,64.27 70.531,63.465C70.516,63.375 70.496,63.285 70.481,63.199C70.234,61.906 69.875,60.656 69.414,59.457C69.149,58.758 68.848,58.078 68.512,57.418C66.402,53.246 63.004,49.848 58.832,47.738C58.172,47.402 57.492,47.102 56.793,46.836Z" style="fill:rgb(29,33,71);"/>
                </g>
                <g transform="matrix(1,0,0,1,865.917,445.274)">
                    <path d="M83.59,27.047C84.149,27.863 84.551,28.801 84.742,29.817C84.75,29.844 84.754,29.875 84.762,29.906C84.809,30.172 85.192,30.172 85.238,29.906C85.246,29.875 85.25,29.844 85.258,29.817C85.449,28.801 85.852,27.863 86.41,27.047C86.602,26.774 86.809,26.508 87.035,26.262C87.188,26.098 87.348,25.938 87.512,25.785C87.758,25.559 88.024,25.352 88.297,25.16C89.113,24.602 90.051,24.199 91.066,24.008C91.094,24 91.125,23.996 91.156,23.988C91.422,23.942 91.422,23.559 91.156,23.512C91.125,23.504 91.094,23.5 91.066,23.492C90.051,23.301 89.113,22.899 88.297,22.34C88.024,22.149 87.758,21.942 87.512,21.715C87.348,21.563 87.188,21.403 87.035,21.238C86.809,20.992 86.602,20.727 86.41,20.453C85.852,19.637 85.449,18.699 85.258,17.684C85.25,17.656 85.246,17.625 85.238,17.594C85.192,17.328 84.809,17.328 84.762,17.594C84.754,17.625 84.75,17.656 84.742,17.684C84.551,18.699 84.149,19.637 83.59,20.453C83.399,20.727 83.192,20.992 82.965,21.238C82.813,21.403 82.653,21.563 82.488,21.715C82.242,21.942 81.977,22.149 81.703,22.34C80.887,22.899 79.949,23.301 78.934,23.492C78.906,23.5 78.875,23.504 78.844,23.512C78.578,23.559 78.578,23.942 78.844,23.988C78.875,23.996 78.906,24 78.934,24.008C79.949,24.199 80.887,24.602 81.703,25.16C81.977,25.352 82.242,25.559 82.488,25.785C82.653,25.938 82.813,26.098 82.965,26.262C83.192,26.508 83.399,26.774 83.59,27.047Z" style="fill:rgb(29,33,71);"/>
                </g>
            </g>
        </g>
    </g>
</svg>
